<?xml version="1.0" encoding="iso-8859-1"?>
<!-- Generator: Adobe Illustrator 19.0.0, SVG Export Plug-In . SVG Version: 6.00 Build 0)  -->
<svg version="1.1" id="Layer_1" xmlns="http://www.w3.org/2000/svg" xmlns:xlink="http://www.w3.org/1999/xlink" x="0px" y="0px"
	 viewBox="0 0 512.001 512.001" style="enable-background:new 0 0 512.001 512.001;" xml:space="preserve">
<g>
	<g>
		<g>
			<path d="M484.658,27.343c-36.456-36.457-95.776-36.457-132.233,0c-3.534,3.534-3.534,9.263,0,12.796
				c3.534,3.534,9.263,3.534,12.796,0c24.347-24.347,72.707-33.932,106.64,0c33.329,33.329,24.786,81.852,0,106.64
				c-5.634,5.634-11.949,10.178-18.677,13.653v-8.112c0-51.557-41.946-93.502-93.502-93.502h-103.23c-2.4,0-4.702,0.953-6.398,2.651
				L2.651,308.87c-3.534,3.534-3.534,9.263,0,12.796L190.335,509.35c1.766,1.766,4.083,2.651,6.398,2.651
				c2.315,0,4.632-0.883,6.398-2.651l247.402-247.402c1.698-1.696,2.651-3.998,2.651-6.398v-75.191
				c11.389-4.53,22.121-11.43,31.474-20.784C521.114,123.119,521.114,63.8,484.658,27.343z M435.087,166.986
				c-14.825,3.311-30.459,2.128-44.695-3.58c3.628-11.032,1.611-23.973-8.106-33.689c-12.937-12.937-33.984-12.936-46.921,0
				c-13.221,13.221-12.593,34.328,0,46.921c11.028,11.028,30.684,13.838,44.734,1.994c17.219,7.738,36.45,10.133,54.989,6.853
				v66.317L196.734,490.156L21.846,315.268L260.2,76.915h99.483c41.578,0,75.405,33.827,75.405,75.405V166.986z M357.762,138.089
				c4.241-0.294,8.537,1.233,11.727,4.423c3.487,3.487,4.643,7.715,4.324,11.653c-3-2.211-5.874-4.671-8.589-7.387
				C362.508,144.062,360.019,141.155,357.762,138.089z M362.01,167.903c-4.84,1.039-10.095-0.306-13.849-4.061
				c-3.967-3.967-5.132-9.161-4.092-13.848c2.56,3.365,5.346,6.569,8.359,9.582C355.455,162.604,358.666,165.367,362.01,167.903z"/>
			<path d="M241.522,155.31L87.961,308.87c-3.534,3.534-3.534,9.263,0,12.796L190.335,424.04c1.766,1.766,4.083,2.651,6.398,2.651
				c2.315,0,4.632-0.883,6.398-2.651l153.56-153.56c3.534-3.534,3.534-9.263,0-12.796L254.318,155.31
				C250.784,151.776,245.055,151.776,241.522,155.31z M196.734,404.845l-89.578-89.578L247.92,174.505l89.578,89.578
				L196.734,404.845z"/>
		</g>
	</g>
</g>
<g>
</g>
<g>
</g>
<g>
</g>
<g>
</g>
<g>
</g>
<g>
</g>
<g>
</g>
<g>
</g>
<g>
</g>
<g>
</g>
<g>
</g>
<g>
</g>
<g>
</g>
<g>
</g>
<g>
</g>
</svg>
