<?xml version="1.0" encoding="iso-8859-1"?>
<!-- Generator: Adobe Illustrator 19.0.0, SVG Export Plug-In . SVG Version: 6.00 Build 0)  -->
<svg version="1.1" id="Layer_1" xmlns="http://www.w3.org/2000/svg" xmlns:xlink="http://www.w3.org/1999/xlink" x="0px" y="0px"
	 viewBox="0 0 512 512" style="enable-background:new 0 0 512 512;" xml:space="preserve">
<g>
	<g>
		<g>
			<path d="M509.291,150.76l-0.001-0.001l-74.024-74.024c-1.735-1.736-4.089-2.711-6.542-2.711h-185.06
				c-5.11,0-9.253,4.142-9.253,9.253c0,5.111,4.143,9.253,9.253,9.253h181.228l55.518,55.518H31.591L87.109,92.53h107.204
				c5.11,0,9.253-4.142,9.253-9.253c0-5.111-4.143-9.253-9.253-9.253H83.277c-2.454,0-4.808,0.975-6.542,2.709L2.711,150.757
				l-0.001,0.001C1.035,152.434,0,154.746,0,157.301v37.012c0,14.796,4.559,28.544,12.337,39.925v194.485
				c0,5.111,4.143,9.253,9.253,9.253h61.687c5.11,0,9.253-4.142,9.253-9.253s-4.143-9.253-9.253-9.253H30.843V252.794
				c11.414,7.852,25.225,12.459,40.096,12.459c26.396,0,49.47-14.49,61.687-35.935c12.216,21.445,35.291,35.935,61.687,35.935
				c26.396,0,49.47-14.49,61.687-35.935c12.216,21.445,35.291,35.935,61.687,35.935s49.47-14.49,61.687-35.935
				c12.216,21.445,35.291,35.935,61.687,35.935c14.871,0,28.682-4.608,40.096-12.459V419.47h-30.843V293.012
				c0-5.111-4.143-9.253-9.253-9.253H293.012c-5.11,0-9.253,4.142-9.253,9.253V419.47h-52.434c-5.11,0-9.253,4.142-9.253,9.253
				s4.143,9.253,9.253,9.253H490.41c5.11,0,9.253-4.142,9.253-9.253V234.238C507.441,222.857,512,209.109,512,194.313v-37.012
				C512,154.746,510.965,152.434,509.291,150.76z M357.783,419.47h-55.518V302.265h55.518V419.47z M431.807,419.47h-55.518V302.265
				h55.518V419.47z M493.494,194.313c0,28.913-23.521,52.434-52.434,52.434s-52.434-23.521-52.434-52.434
				c0-5.111-4.143-9.253-9.253-9.253c-5.11,0-9.253,4.142-9.253,9.253c0,28.913-23.521,52.434-52.434,52.434
				c-28.913,0-52.434-23.521-52.434-52.434c0-5.111-4.143-9.253-9.253-9.253s-9.253,4.142-9.253,9.253
				c0,28.913-23.521,52.434-52.434,52.434c-28.913,0-52.434-23.521-52.434-52.434c0-5.111-4.143-9.253-9.253-9.253
				c-5.11,0-9.253,4.142-9.253,9.253c0,28.913-23.521,52.434-52.434,52.434s-52.434-23.521-52.434-52.434v-27.759h474.988V194.313z"
				/>
			<path d="M126.458,407.133c-8.504,0-15.422,6.918-15.422,15.422c0,8.504,6.918,15.422,15.422,15.422s15.422-6.918,15.422-15.422
				C141.88,414.05,134.962,407.133,126.458,407.133z"/>
			<path d="M188.145,407.133c-8.504,0-15.422,6.918-15.422,15.422c0,8.504,6.918,15.422,15.422,15.422s15.422-6.918,15.422-15.422
				C203.566,414.05,196.649,407.133,188.145,407.133z"/>
			<path d="M226.282,336.668c-1.753-2.245-4.444-3.559-7.294-3.559h-86.361c-5.11,0-9.253,4.142-9.253,9.253
				s4.143,9.253,9.253,9.253h74.51l-7.711,30.843h-83.889l-10.849-54.249c-0.865-4.326-4.662-7.438-9.073-7.438H70.94
				c-5.11,0-9.253,4.142-9.253,9.253s4.143,9.253,9.253,9.253h17.09l10.849,54.249c0.865,4.325,4.662,7.438,9.073,7.438h98.699
				c4.245,0,7.946-2.889,8.977-7.009l12.337-49.349C228.656,341.841,228.035,338.913,226.282,336.668z"/>
		</g>
	</g>
</g>
<g>
</g>
<g>
</g>
<g>
</g>
<g>
</g>
<g>
</g>
<g>
</g>
<g>
</g>
<g>
</g>
<g>
</g>
<g>
</g>
<g>
</g>
<g>
</g>
<g>
</g>
<g>
</g>
<g>
</g>
</svg>
